<svg xmlns="http://www.w3.org/2000/svg" viewBox="0 0 66 26" width="66" height="26" role="img" aria-label="Google Pay"><g transform="translate(0,2) scale(.9167)"><path fill="#4285F4" d="M23.5 12.3c0-.8-.1-1.6-.2-2.3H12v4.4h6.5c-.3 1.5-1.1 2.8-2.4 3.6v3h3.9c2.2-2.1 3.5-5.1 3.5-8.7z"/><path fill="#34A853" d="M12 24c3.2 0 6-1.1 8-2.9l-3.9-3c-1.1.7-2.5 1.2-4.1 1.2-3.1 0-5.8-2.1-6.7-5H1.2v3.1C3.2 21.3 7.3 24 12 24z"/><path fill="#FBBC04" d="M5.3 14.3c-.5-1.5-.5-3.1 0-4.6V6.6H1.2c-1.7 3.4-1.7 7.4 0 10.8l4.1-3.1z"/><path fill="#EA4335" d="M12 4.7c1.7 0 3.3.6 4.5 1.8l3.4-3.4C17.8 1.1 15 0 12 0 7.3 0 3.2 2.7 1.2 6.6l4.1 3.1c.9-2.9 3.6-5 6.7-5z"/></g><text x="27" y="19.2" fill="currentColor" font-family="'Inter','Roboto','Helvetica Neue',Arial,sans-serif" font-size="17.5" font-weight="600" letter-spacing="-.3">Pay</text></svg>
